<svg xmlns="http://www.w3.org/2000/svg" viewBox="0 0 512 512">
  <defs>
    <linearGradient id="grad1" x1="0%" y1="0%" x2="100%" y2="100%">
      <stop offset="0%" style="stop-color:#3b82f6;stop-opacity:1" />
      <stop offset="100%" style="stop-color:#1d4ed8;stop-opacity:1" />
    </linearGradient>
  </defs>
  <rect width="512" height="512" rx="128" fill="url(#grad1)" />
  <path d="M368 160H144c-17.6 0-32 14.4-32 32v224c0 17.6 14.4 32 32 32h224c17.6 0 32-14.4 32-32V192c0-17.6-14.4-32-32-32zm-48 160H192c-8.8 0-16-7.2-16-16s7.2-16 16-16h128c8.8 0 16 7.2 16 16s-7.2 16-16 16zm0-64H192c-8.8 0-16-7.2-16-16s7.2-16 16-16h128c8.8 0 16 7.2 16 16s-7.2 16-16 16z" fill="#ffffff"/>
  <path d="M336 96H176c-8.8 0-16 7.2-16 16v32h192v-32c0-8.8-7.2-16-16-16z" fill="#93c5fd"/>
</svg>
